<?xml version="1.0" encoding="UTF-8"?>
<svg id="Livello_2" data-name="Livello 2" xmlns="http://www.w3.org/2000/svg" viewBox="0 0 195.95 190.73">
  <defs>
    <style>
      .cls-1 {
        fill: #f6e8cf;
      }

      .cls-1, .cls-2, .cls-3 {
        stroke-width: 0px;
      }

      .cls-2 {
        fill: #0b2130;
      }

      .cls-3 {
        fill: #fdc543;
      }
    </style>
  </defs>
  <g id="Livello_1-2" data-name="Livello 1">
    <g>
      <path class="cls-2" d="m126,47.47c.39.05,1.72-.22,2.47-.76,12.96-9.24,26.09-18.24,39.26-27.18,1.25-.85,1.56-1.48,1.17-3.02-1.89-7.42,3.37-15.02,11.14-16.33,7.51-1.27,14.81,4.17,15.79,11.61,1.01,7.6-4.43,13.78-11.3,14.99-1.38.24-1.76.68-1.83,2.11-.36,7.05-.88,14.08-1.35,21.12-.33,4.92-.67,9.84-1,14.77-.46,6.74-.9,13.49-1.38,20.23-.19,2.67-1.8,4.25-4.37,4.42-1.15.08-1.67.57-1.67,1.88.04,27.14,0,54.27.04,81.41,0,6.7-2.39,12.07-8.24,15.61-2.67,1.62-5.58,2.39-8.75,2.39-45.38-.03-90.76-.02-136.14-.02-2.66,0-5.3.12-7.95-.64C5.53,188.24-.02,181.56,0,174.14c.11-37.11.07-74.23.05-111.34,0-8.02,6.95-15.51,15.5-15.34,4.67.09,9.35,0,14.02.07,1.25.02,1.79-.18,1.67-1.6-.21-2.39.04-4.76,1.03-7.01,1.8-4.09,6.37-6.53,10.75-5.7,4.61.88,7.47,4.42,7.62,9.5.04,1.25.04,2.51-.02,3.76-.04.81.2,1.18,1.04,1.01,3.91,0,7.83,0,11.74,0,.65,0,1.31-.01,1.96-.02,3.45,0,6.9.02,10.35.03.77,0,1.55-.02,2.32-.03,2.43.03,4.86.05,7.3.08.53-.19.36-.64.36-1.01.02-1.31-.03-2.62.03-3.92.22-4.51,2.98-7.92,7.23-8.95,4.3-1.05,8.08.45,10.24,4.13,1.09,1.86,1.49,3.93,1.6,6.08.06,1.21-.35,2.47.28,3.64,1.17-.01,2.34-.02,3.51-.03.5,0,.99.02,1.49.03,0,0,0,0,0,0,.61-.01,1.22-.02,1.83-.04.49,0,.98.01,1.47.02.42,0,.85,0,1.27,0,1.17,0,2.34-.01,3.52-.02.42,0,.84,0,1.26,0,.43.02.75.02,1.15,0,.87,0,1.75,0,2.62,0,1.05,0,2.55,0,2.83,0Zm-46.24,35.98c-24.05,0-48.1,0-72.15-.03-1.29,0-1.86.13-1.86,1.68.04,29.47.02,58.93,0,88.4,0,2.43.39,4.76,1.89,6.77,2.34,3.15,5.52,4.57,9.39,4.57,15.45,0,30.89,0,46.34,0,30.66,0,61.33-.01,91.99.02,6.98,0,12.06-4.99,11.81-11.73-.14-3.7-.01-7.41-.01-11.11,0-23.94,0-47.88.02-71.81,0-1-.21-1.55-1.25-1.8-3.99-.96-7.73-2.59-11.4-4.4-.73-.36-1.45-.58-2.28-.58-24.16.01-48.33.01-72.49.01Zm40.93-30.09c-4.83,0-9.55,0-14.27,0-.23,0-.46.02-.68,0-.98-.12-.91.53-.91,1.19.01,2.1.04,4.19-.69,6.24-2.44,6.8-10.91,8.75-15.76,3.59-2.32-2.47-2.7-5.54-2.74-8.72-.03-2.29-.01-2.29-2.28-2.29-9.4.02-18.8.03-28.2.06-1.47,0-3.34-.49-4.32.23-1.04.76-.3,2.75-.45,4.19,0,.06,0,.11,0,.17-.25,4.78-3.34,8.48-7.66,9.17-4.79.76-9.27-1.92-10.94-6.48-.58-1.59-.66-3.21-.65-4.86.02-2.43,0-2.45-2.49-2.46-4.16-.02-8.32,0-12.48-.03-6.68-.05-10.62,5.39-10.39,10.46.18,3.98.14,7.98,0,11.96-.06,1.7.46,2.02,2.07,2.01,43.99-.05,87.99-.04,131.98-.04.81,0,1.62,0,2.67,0-1.66-1.09-3.11-1.98-4.49-2.95-6.13-4.28-11.38-9.45-15.7-15.55-1.21-1.7-2.37-3.49-1.63-5.9Zm6.08,1.7c.15.22.3.46.46.68.2.28.38.56.6.83,7.83,9.75,17.44,17.21,28.78,22.45,4.9,2.27,9.95,4.11,15.28,5.09,1.18.22,1.69.07,1.59-1.25-.08-1.13-.03-2.28.05-3.41.62-8.16,1.3-16.32,1.66-24.51.37-8.24,1.03-16.46,1.6-24.69.14-1.99.53-3.97-2.13-4.72-.55-.15-1.03-.71-1.43-1.18-.43-.5-.81-.42-1.27-.12-3.02,1.92-6.07,3.79-9.05,5.76-6.73,4.45-13.43,8.93-20.12,13.43-5.47,3.68-11.09,7.15-16.03,11.62ZM182.2,5.58c-4.61-.02-8.25,3.51-8.23,7.96.02,4.36,3.61,7.9,8.11,8,4.5.1,8.38-3.66,8.38-8.12,0-4.2-3.82-7.82-8.26-7.84Z"/>
      <path class="cls-3" d="m63.4,47.48c-3.92,0-7.83,0-11.74,0,3.92,0,7.83,0,11.74,0Z"/>
      <path class="cls-3" d="m75.71,47.49c-3.45,0-6.91-.02-10.35-.03,3.45,0,6.9.02,10.35.03Z"/>
      <path class="cls-3" d="m108.57,47.47c-1.17.01-2.34.02-3.51.03,1.17-.01,2.34-.02,3.51-.03Z"/>
      <path class="cls-3" d="m118.15,47.46c-1.17,0-2.35.01-3.52.02,1.18,0,2.35-.01,3.52-.02Z"/>
      <path class="cls-3" d="m113.36,47.48c-.49,0-.99-.01-1.47-.02.49,0,.98.01,1.47.02Z"/>
      <path class="cls-3" d="m110.06,47.49s0,0,0,0,0,0,0,0Z"/>
      <path class="cls-3" d="m79.77,83.46c24.16,0,48.33,0,72.49-.01.83,0,1.55.22,2.28.58,3.67,1.81,7.41,3.44,11.4,4.4,1.05.25,1.26.8,1.25,1.8-.03,23.94-.02,47.88-.02,71.81,0,3.7-.12,7.41.01,11.11.25,6.74-4.83,11.74-11.81,11.73-30.66-.03-61.33-.02-91.99-.02-15.45,0-30.89,0-46.34,0-3.87,0-7.06-1.42-9.39-4.57-1.49-2.01-1.89-4.34-1.89-6.77.01-29.47.04-58.93,0-88.4,0-1.56.56-1.68,1.86-1.68,24.05.04,48.1.03,72.15.03Zm-39.57,49.04c3.3,9.27,8.53,17.04,16.26,22.86,14.49,10.91,30.62,13.8,47.86,8.22,13.67-4.42,23.45-13.39,28.27-27.21.5-1.44.89-1.4,1.99-.74,1.73,1.03,2.72.8,3.84-.64.96-1.23.95-2.64-.3-3.83-2.78-2.63-6.04-4.39-9.9-4.87-.49-.06-1.03,0-1.51.13-1.28.36-1.97,1.28-2.12,2.59-.15,1.32.26,2.5,1.53,2.93,1.49.51,1.13,1.17.64,2.21-8.9,18.72-29.78,27.91-50.25,22.49-14.09-3.73-23.75-12.59-30.17-25.39-.56-1.11-.58-1.67.71-2.25,1.28-.58,1.91-1.77,1.45-3.27-.47-1.54-1.58-2.64-3.13-2.34-4.06.81-7.55,2.81-10.27,5.97-.99,1.15-.69,2.81.41,3.86,1.13,1.06,2.32,1.04,3.54.11.31-.24.64-.46,1.14-.83Zm31.24-19.42c-.06-2.8-.6-5.37-2.17-7.66-2.7-3.94-7.25-3.98-10.01-.08-2.91,4.12-2.88,10.79.07,14.93,2.5,3.51,6.79,3.67,9.53.32,1.8-2.2,2.46-4.81,2.57-7.51Zm47.78-.42c.02-2.37-.5-4.6-1.72-6.66-1.19-2.01-2.76-3.53-5.23-3.53-2.65,0-4.53,1.47-5.67,3.74-2.3,4.59-2.21,9.21.43,13.64,2.35,3.94,6.63,4.23,9.62.73,1.94-2.27,2.55-5.01,2.57-7.92Z"/>
      <path class="cls-3" d="m120.7,53.37c-.74,2.41.42,4.19,1.63,5.9,4.32,6.09,9.57,11.27,15.7,15.55,1.39.97,2.83,1.86,4.49,2.95-1.04,0-1.85,0-2.67,0-43.99,0-87.99-.01-131.98.04-1.61,0-2.12-.32-2.07-2.01.14-3.98.18-7.98,0-11.96-.23-5.07,3.71-10.52,10.39-10.46,4.16.03,8.32,0,12.48.03,2.49.01,2.51.04,2.49,2.46-.01,1.66.07,3.28.65,4.86,1.66,4.56,6.15,7.24,10.94,6.48,4.32-.69,7.41-4.39,7.66-9.17,0-.06,0-.11,0-.17.14-1.44-.6-3.43.45-4.19.97-.71,2.84-.22,4.32-.23,9.4-.03,18.8-.04,28.2-.06,2.27,0,2.25,0,2.28,2.29.04,3.18.42,6.25,2.74,8.72,4.85,5.16,13.32,3.22,15.76-3.59.73-2.04.7-4.13.69-6.24,0-.66-.08-1.3.91-1.19.22.03.46,0,.68,0,4.72,0,9.44,0,14.27,0Z"/>
      <path class="cls-3" d="m126.78,55.07c4.94-4.47,10.56-7.94,16.03-11.62,6.69-4.5,13.4-8.98,20.12-13.43,2.98-1.97,6.03-3.84,9.05-5.76.47-.3.84-.37,1.27.12.41.46.88,1.02,1.43,1.18,2.65.75,2.27,2.73,2.13,4.72-.57,8.23-1.23,16.45-1.6,24.69-.37,8.18-1.04,16.34-1.66,24.51-.09,1.13-.13,2.28-.05,3.41.09,1.32-.41,1.47-1.59,1.25-5.34-.99-10.38-2.83-15.28-5.09-11.34-5.25-20.95-12.71-28.78-22.45-.21-.27-.4-.55-.6-.83-.16-.23-.31-.46-.46-.68Z"/>
      <path class="cls-1" d="m182.2,5.58c4.44.02,8.26,3.65,8.26,7.84,0,4.46-3.88,8.21-8.38,8.12-4.5-.1-8.09-3.64-8.11-8-.02-4.46,3.63-7.99,8.23-7.96Z"/>
      <path class="cls-2" d="m40.2,132.5c-.5.36-.82.59-1.14.83-1.21.93-2.41.95-3.54-.11-1.11-1.04-1.4-2.71-.41-3.86,2.71-3.16,6.21-5.16,10.27-5.97,1.55-.31,2.66.79,3.13,2.34.45,1.5-.17,2.69-1.45,3.27-1.29.58-1.27,1.14-.71,2.25,6.42,12.8,16.08,21.66,30.17,25.39,20.47,5.42,41.34-3.77,50.25-22.49.5-1.04.85-1.71-.64-2.21-1.27-.43-1.68-1.61-1.53-2.93.15-1.31.84-2.22,2.12-2.59.48-.14,1.02-.19,1.51-.13,3.86.48,7.12,2.24,9.9,4.87,1.25,1.19,1.26,2.6.3,3.83-1.13,1.44-2.12,1.67-3.84.64-1.1-.65-1.49-.7-1.99.74-4.82,13.82-14.6,22.79-28.27,27.21-17.24,5.58-33.37,2.68-47.86-8.22-7.73-5.82-12.96-13.59-16.26-22.86Z"/>
      <path class="cls-2" d="m71.44,113.07c-.11,2.7-.78,5.31-2.57,7.51-2.74,3.36-7.03,3.19-9.53-.32-2.95-4.14-2.98-10.81-.07-14.93,2.76-3.9,7.3-3.86,10.01.08,1.57,2.28,2.1,4.86,2.17,7.66Z"/>
      <path class="cls-2" d="m119.22,112.66c-.02,2.91-.63,5.65-2.57,7.92-2.99,3.5-7.27,3.21-9.62-.73-2.64-4.43-2.73-9.05-.43-13.64,1.14-2.27,3.02-3.74,5.67-3.74,2.47,0,4.04,1.53,5.23,3.53,1.22,2.05,1.74,4.28,1.72,6.66Z"/>
    </g>
  </g>
</svg>