<?xml version="1.0" encoding="UTF-8"?>
<svg id="Livello_2" data-name="Livello 2" xmlns="http://www.w3.org/2000/svg" viewBox="0 0 257.54 80.52">
  <defs>
    <style>
      .cls-1 {
        fill: #0b2130;
        stroke-width: 0px;
      }
    </style>
  </defs>
  <g id="Livello_1-2" data-name="Livello 1">
    <g>
      <path class="cls-1" d="m244.73,56.26c-2.49,2.96-5.17,5.25-8.75,6-9.76,2.03-17.53-3.38-18.8-13.49-.95-7.54-.19-15.14-.39-22.71-.01-.51,0-1.03,0-1.54.03-5.85,5.3-8.76,10.51-5.81,1.95,1.1,2.09,3.05,2.12,4.91.09,6.1,0,12.2.07,18.3.02,1.97.35,3.92,1.48,5.64,1.63,2.46,4,3.11,6.7,2.55,3.46-.71,7.19-3.35,7.14-9.25-.03-4.84,0-9.69,0-14.53,0-.68,0-1.37,0-2.05,0-2.29.27-4.53,2.64-5.64,2.54-1.18,5.13-1.25,7.66.2,1.52.87,1.93,2.31,2.08,3.87.59,5.91.24,11.84.24,17.77,0,6.2.19,12.42-.59,18.6-1.06,8.39-4.63,15.13-12.46,19.06-5.13,2.57-10.59,2.68-16.14,2.11-3.04-.31-5.69-1.59-8.21-3.2-2.52-1.62-3.34-4.27-2.2-6.79,1.18-2.6,3.56-3.68,6.49-2.89,2.34.63,4.59,1.55,7.04,1.89,9.26,1.27,13.69-6.49,13.37-12.99Z"/>
      <path class="cls-1" d="m.26,34.04c0-8.03-.02-16.07.01-24.1.01-2.67,1.34-4.54,3.84-5.46,2.94-1.08,6.01-1.68,9.12-1.93,6.52-.52,12.98-.31,19.12,2.28,6.2,2.62,9.86,7.26,10.76,13.98.97,7.26-.37,13.85-5.97,18.99-3.68,3.38-8.23,5.04-13.09,6.01-3.15.63-6.33.67-9.51.86-.94.06-1.08.33-1.08,1.18-.02,3.93.17,7.86-.11,11.79-.22,3.06-1.1,4.32-3.97,5.14-1.98.57-4.03.72-6.07.12-2.24-.66-3.24-2.04-3.28-4.76-.05-3.93-.03-7.86-.03-11.8,0-4.1,0-8.21,0-12.31.08,0,.17,0,.25,0Zm13.35-10.47s-.06,0-.09,0c0,2.62.02,5.24-.01,7.86,0,.65,0,1.05.87,1.04,3.63-.06,7.22-.08,10.62-1.71,3.21-1.54,4.91-4.66,4.68-9.07-.18-3.34-2.11-5.68-5.52-6.75-3.11-.97-6.28-.85-9.45-.53-.66.07-1.15.38-1.12,1.31.09,2.62.03,5.24.03,7.86Z"/>
      <path class="cls-1" d="m95.61,38.11c.11-2.6-.28-4.88-1.54-6.9-1.56-2.5-4.18-3.01-6.83-3.12-3.34-.15-6.51.71-9.56,2.07-2.49,1.11-4.18.73-5.73-.92-1.71-1.84-1.73-6.13,1.19-8.11,2.74-1.85,5.81-2.79,9-3.23,5.2-.72,10.32-.69,15.42,1.12,5.79,2.05,8.69,6.18,9.79,11.93.81,4.24.35,8.52.38,12.78.03,4.67.05,9.34.07,14.02.02,3.6-1.34,5.07-4.95,5.22-1.66.07-3.4.44-4.9-.69-1.59-1.2-2.07-2.24-2.37-5.11-1.48,1.37-2.75,2.78-4.32,3.86-5.79,4.01-14.78,3.74-19.53-.62-7.3-6.72-5.07-19.55,4.17-23.45,6.17-2.61,12.37-2.55,18.42.55.34.18.69.33,1.28.61Zm-7.33,4.91c-2.06-.09-4.08.04-5.92,1.14-2.17,1.29-2.52,3.35-2.38,5.62.12,1.9,1.18,3.16,2.81,3.93,3.78,1.78,10.47-.67,12.31-4.45,1.08-2.22.29-4.43-1.97-5.39-1.54-.66-3.19-.8-4.84-.84Z"/>
      <path class="cls-1" d="m128.07,23.98c1.34-1.39,2.53-2.84,4.11-3.87,3.35-2.21,6.93-3.16,10.96-2.36,8.7,1.72,13.4,6.99,13.83,15.76.4,8.14.06,16.29-.03,24.43-.04,3.11-1.64,4.69-4.74,5.05-.23.03-.45.07-.68.09-5.05.42-7.2-1.5-7.24-6.59-.04-6.1,0-12.2-.01-18.3,0-.63,0-1.26-.07-1.88-.41-2.99-1.56-5.46-4.73-6.39-3.13-.91-5.95-.24-8.36,1.94-1.83,1.66-2.53,3.85-2.55,6.25-.03,6.04,0,12.09-.03,18.13-.03,5.18-2.08,7.11-7.21,6.89-3.88-.16-5.72-2.01-5.71-5.9.02-9.23.08-18.47.13-27.7.01-2.11.11-4.22.1-6.32-.02-4.5,3.11-5.55,6.51-5.25,3.75.34,4.69,1.52,5.73,6.02Z"/>
      <path class="cls-1" d="m188.73,44.35c0-4.39-.03-8.77.02-13.16.01-1.07-.18-1.62-1.37-1.42-.44.07-.91.02-1.37,0-2.63-.09-3.73-1.11-4.19-3.74-.22-1.27-.08-2.51.23-3.72.6-2.33,1.79-3.21,4.77-3.09,1.73.07,2.07-.4,2.09-2.09.07-8.77,5.91-14.89,14.76-15.82,3.53-.37,6.93-.19,10.14,1.41,2.64,1.31,3.82,3.58,3.46,6.43-.41,3.34-3.04,5.06-6.24,4.07-1.84-.57-3.63-1.16-5.64-.62-2.51.68-3.06,1.16-3.4,3.69-.05.34-.05.69-.12,1.02-.35,1.49,0,2.15,1.74,1.94,1.68-.21,3.41-.09,5.12-.04,2.79.09,3.34.72,4.06,3.49.28,1.09.29,2.13.23,3.17-.15,2.59-1.59,3.89-4.17,3.9-1.88.01-3.77.07-5.64-.05-1.37-.09-1.81.27-1.8,1.73.07,8.26.03,16.52.02,24.79,0,.63.03,1.26-.02,1.88-.25,3.02-1.68,4.49-4.7,4.85-.4.05-.79.1-1.19.12-5.07.16-6.84-1.55-6.83-6.6,0-4.05,0-8.09,0-12.14.01,0,.03,0,.04,0Z"/>
      <path class="cls-1" d="m47.68,30.64c0-7.29-.04-14.59.01-21.88.03-4.32,1.42-5.67,5.73-5.84,5.58-.21,7.09,1.21,7.1,6.86.01,13.4,0,26.8-.06,40.19,0,1.65.39,2.66,2,3.46,2.9,1.44,2.83,6.38.03,8.44-5.69,4.19-13.69.88-14.7-6.12-.74-5.1-.18-10.24-.3-15.37-.08-3.25-.01-6.5-.01-9.75.06,0,.13,0,.19,0Z"/>
      <path class="cls-1" d="m164.09,40.13c0-5.53-.03-11.05.01-16.58.02-2.59.82-3.63,3.25-4.23,1.95-.48,3.97-.47,5.92-.04,2.14.48,3.01,1.61,3.18,3.84.6,7.74.21,15.49.26,23.23.03,4.15.26,8.31-.24,12.46-.28,2.31-.9,3.16-3.15,3.88-2.61.83-5.21.56-7.6-.59-1.28-.62-1.48-2.22-1.61-3.54-.38-3.92-.16-7.85-.2-11.78-.02-2.22,0-4.44,0-6.66.06,0,.11,0,.17,0Z"/>
      <path class="cls-1" d="m170.58,15.09c-5-.08-8.22-3.03-8.16-7.51.05-4.57,3.58-7.66,8.65-7.58,4.52.08,7.86,3.39,7.74,7.87-.09,3.47-2.68,7.7-8.23,7.22Z"/>
    </g>
  </g>
</svg>